<svg id="Capa_1" xmlns="http://www.w3.org/2000/svg" width="63" height="63" viewBox="0 0 63 63"><style>.st0{fill:#FFFFFF;}</style><path class="st0" d="M30.945 16.488c-9.394 0-17.008 7.615-17.008 17.007 0 9.393 7.614 17.008 17.008 17.008 9.395 0 17.008-7.615 17.008-17.008 0-9.392-7.613-17.007-17.008-17.007zm-4.76 24.12H22.87V30h3.315v10.61zm-1.743-11.935h-.024c-1.2 0-1.978-.81-1.978-1.838 0-1.048.8-1.842 2.025-1.842 1.223 0 1.975.792 2 1.84 0 1.026-.777 1.84-2.023 1.84zM39.45 40.61h-3.76v-5.49c0-1.438-.59-2.418-1.882-2.418-.99 0-1.54.662-1.795 1.3-.096.23-.08.547-.08.867v5.74h-3.725s.048-9.725 0-10.61h3.724v1.666c.22-.728 1.41-1.767 3.31-1.767 2.355 0 4.207 1.525 4.207 4.81v5.9z"/></svg>