<svg id="Capa_1" xmlns="http://www.w3.org/2000/svg" width="146" height="135.014" viewBox="0 0 146 135.014"><style>.st0{fill:#FFFFFF;}</style><path class="st0" fill="#010202" d="M74.945 44.494c-12.71 0-23.013 10.304-23.013 23.013 0 12.71 10.303 23.013 23.013 23.013s23.013-10.303 23.013-23.013-10.304-23.013-23.013-23.013zm5.08 19.116l-.264 3.443h-3.528v11.96h-4.46v-11.96h-2.378V63.61h2.378v-2.313c0-1.02.026-2.593.767-3.564C73.32 56.7 74.39 56 76.23 56c3 0 4.264.428 4.264.428l-.594 3.525s-.992-.287-1.916-.287c-.926 0-1.754.332-1.754 1.256v2.688h3.793z"/></svg>